<svg width="222" height="228" viewBox="0 0 222 228" fill="none" xmlns="http://www.w3.org/2000/svg">
<path d="M50.8428 185.165C50.8428 185.165 83.1972 170.922 92.4413 161.426C101.685 151.931 73.9531 151.931 73.9531 104.452C73.9531 56.974 110.93 56.974 110.93 56.974C110.93 56.974 147.906 56.974 147.906 104.452C147.906 151.931 120.174 151.931 129.418 161.426C138.662 170.922 171.016 185.165 171.016 185.165" stroke="black" stroke-linecap="round"/>
<path fill-rule="evenodd" clip-rule="evenodd" d="M110.93 208.905C161.983 208.905 203.371 166.391 203.371 113.948C203.371 61.5048 161.983 18.9912 110.93 18.9912C59.8756 18.9912 18.4883 61.5048 18.4883 113.948C18.4883 166.391 59.8756 208.905 110.93 208.905Z" stroke="black"/>
</svg>
