<svg width="57" height="58" viewBox="0 0 57 58" fill="none" xmlns="http://www.w3.org/2000/svg">
<path d="M12.8611 46.8395C12.8611 46.8395 21.0455 43.2364 23.3839 40.8344C25.7223 38.4324 18.7071 38.4324 18.7071 26.4222C18.7071 14.4121 28.0607 14.4121 28.0607 14.4121C28.0607 14.4121 37.4142 14.4121 37.4142 26.4222C37.4142 38.4324 30.3991 38.4324 32.7374 40.8344C35.0758 43.2364 43.2602 46.8395 43.2602 46.8395" stroke="black" stroke-linecap="round"/>
<path fill-rule="evenodd" clip-rule="evenodd" d="M28.0607 52.8445C40.9753 52.8445 51.4447 42.0902 51.4447 28.8242C51.4447 15.5582 40.9753 4.80396 28.0607 4.80396C15.1461 4.80396 4.67676 15.5582 4.67676 28.8242C4.67676 42.0902 15.1461 52.8445 28.0607 52.8445Z" stroke="black"/>
</svg>
