<svg width="51" height="53" viewBox="0 0 51 53" fill="none" xmlns="http://www.w3.org/2000/svg">
<path d="M11.6155 42.3024C11.6155 42.3024 19.0071 39.0483 21.119 36.879C23.2308 34.7096 16.8952 34.7096 16.8952 23.8629C16.8952 13.0161 25.3427 13.0161 25.3427 13.0161C25.3427 13.0161 33.7903 13.0161 33.7903 23.8629C33.7903 34.7096 27.4546 34.7096 29.5665 36.879C31.6784 39.0483 39.07 42.3024 39.07 42.3024" stroke="black" stroke-linecap="round"/>
<path fill-rule="evenodd" clip-rule="evenodd" d="M25.3427 47.7258C37.0064 47.7258 46.4616 38.0133 46.4616 26.0323C46.4616 14.0513 37.0064 4.33875 25.3427 4.33875C13.6791 4.33875 4.22388 14.0513 4.22388 26.0323C4.22388 38.0133 13.6791 47.7258 25.3427 47.7258Z" stroke="black"/>
</svg>
