<svg width="222" height="228" viewBox="0 0 222 228" fill="none" xmlns="http://www.w3.org/2000/svg">
<path d="M50.8635 185.242C50.8635 185.242 83.2313 170.992 92.4792 161.493C101.727 151.993 73.9834 151.993 73.9834 104.495C73.9834 56.9976 110.975 56.9976 110.975 56.9976C110.975 56.9976 147.967 56.9976 147.967 104.495C147.967 151.993 120.223 151.993 129.471 161.493C138.719 170.992 171.087 185.242 171.087 185.242" stroke="black" stroke-linecap="round"/>
<path fill-rule="evenodd" clip-rule="evenodd" d="M110.975 208.991C162.05 208.991 203.455 166.46 203.455 113.995C203.455 61.5303 162.05 18.9993 110.975 18.9993C59.9003 18.9993 18.4958 61.5303 18.4958 113.995C18.4958 166.46 59.9003 208.991 110.975 208.991Z" stroke="black"/>
</svg>
