<svg width="51" height="53" viewBox="0 0 51 53" fill="none" xmlns="http://www.w3.org/2000/svg">
<path d="M11.6155 43.072C11.6155 43.072 19.0071 39.818 21.119 37.6486C23.2308 35.4793 16.8952 35.4793 16.8952 24.6325C16.8952 13.7858 25.3427 13.7858 25.3427 13.7858C25.3427 13.7858 33.7903 13.7858 33.7903 24.6325C33.7903 35.4793 27.4546 35.4793 29.5665 37.6486C31.6784 39.818 39.07 43.072 39.07 43.072" stroke="black" stroke-linecap="round"/>
<path fill-rule="evenodd" clip-rule="evenodd" d="M25.3427 48.4954C37.0064 48.4954 46.4616 38.7829 46.4616 26.8019C46.4616 14.8209 37.0064 5.1084 25.3427 5.1084C13.6791 5.1084 4.22388 14.8209 4.22388 26.8019C4.22388 38.7829 13.6791 48.4954 25.3427 48.4954Z" stroke="black"/>
</svg>
