<svg width="180" height="171" viewBox="0 0 180 171" fill="none" xmlns="http://www.w3.org/2000/svg">
<path d="M108.358 24.5593C114.265 31.3685 108.493 42.211 99.5189 50.4394C94.0875 51.9513 89.8606 55.4287 86.7029 59.1461L75.0956 51.0002C77.4411 35.2947 95.9171 15.4136 106.138 22.5858C106.948 23.1465 107.693 23.8118 108.355 24.5663L108.358 24.5593ZM83.4289 63.9583L71.616 55.6621C53.4793 74.4022 79.6717 87.0115 83.4289 63.9583ZM43.9409 118.894C43.2787 118.139 42.534 117.474 41.724 116.913C31.5033 109.741 13.0277 129.621 10.6822 145.327L22.2895 153.473C25.4473 149.756 29.675 146.284 35.1053 144.766C44.0796 136.538 49.8513 125.696 43.9445 118.885L43.9409 118.894ZM19.0108 158.293L7.19914 149.996C-10.9275 168.733 15.2602 181.344 19.0097 158.286L19.0108 158.293ZM115.641 99.6892C108.752 94.0586 99.3693 101.391 92.7271 111.88C91.8983 117.866 89.1397 122.771 86.0474 126.549L94.7695 138.173C108.991 134.009 125.376 112.097 117.699 101.873C117.098 101.062 116.408 100.332 115.644 99.7L115.641 99.6892ZM81.9532 130.575C61.1078 137.016 75.4641 163.819 90.8282 142.385L81.9532 130.575ZM172.786 1.65276C164.862 -1.99858 157.548 7.65283 153.553 19.6483C154.14 25.7123 152.596 31.2382 150.507 35.7436L161.57 44.7416C174.296 36.9056 185.027 11.1448 175.272 3.2254C174.508 2.59315 173.677 2.06372 172.797 1.64938L172.786 1.65276ZM147.503 40.7719C128.935 52.62 148.917 74.9448 158.762 49.9294L147.505 40.7777L147.503 40.7719Z" fill="#FFBF00" fill-opacity="0.3"/>
</svg>
