<svg width="136" height="127" viewBox="0 0 136 127" fill="none" xmlns="http://www.w3.org/2000/svg">
<path d="M81.8073 18.0723C86.2877 23.1195 81.9099 31.1563 75.1029 37.2555C70.9832 38.3761 67.7772 40.9537 65.3821 43.7092L56.5781 37.6711C58.3572 26.0297 72.3709 11.2932 80.1235 16.6095C80.7378 17.0251 81.3026 17.5182 81.8047 18.0775L81.8073 18.0723ZM62.8988 47.2762L53.9389 41.1267C40.1824 55.0175 60.049 64.3639 62.8988 47.2762ZM32.9477 87.996C32.4454 87.4367 31.8806 86.9436 31.2662 86.528C23.5139 81.2116 9.50039 95.9478 7.7214 107.59L16.5254 113.628C18.9205 110.872 22.1272 108.299 26.246 107.173C33.0529 101.075 37.4306 93.038 32.9504 87.99L32.9477 87.996ZM14.0385 117.2L5.07953 111.05C-8.66928 124.939 11.1938 134.286 14.0377 117.195L14.0385 117.2ZM87.3312 73.761C82.106 69.5875 74.9894 75.0222 69.9514 82.7974C69.3227 87.2345 67.2304 90.8699 64.8849 93.6705L71.5005 102.287C82.2877 99.1999 94.7154 82.958 88.8923 75.3801C88.4366 74.7789 87.913 74.2377 87.3336 73.769L87.3312 73.761ZM61.7795 96.6545C45.9686 101.429 56.8576 121.296 68.5111 105.409L61.7795 96.6545ZM130.675 1.09317C124.664 -1.61332 119.117 5.54062 116.087 14.4321C116.532 18.9269 115.362 23.0229 113.777 26.3625L122.168 33.0321C131.82 27.2237 139.959 8.12898 132.561 2.25887C131.981 1.79022 131.351 1.39779 130.683 1.09066L130.675 1.09317ZM111.498 30.0896C97.4149 38.8718 112.571 55.4197 120.038 36.8774L111.499 30.0939L111.498 30.0896Z" fill="#FFBF00" fill-opacity="0.3"/>
</svg>
