<svg width="179" height="162" viewBox="0 0 179 162" fill="none" xmlns="http://www.w3.org/2000/svg">
<path d="M107.543 19.1452C113.45 25.7995 107.678 36.3953 98.7035 44.4366C93.2721 45.9141 89.0452 49.3123 85.8875 52.9452L74.2801 44.9846C76.6257 29.6364 95.1017 10.2075 105.323 17.2166C106.133 17.7645 106.877 18.4147 107.539 19.152L107.543 19.1452ZM82.6134 57.648L70.8006 49.5404C52.6639 67.8543 78.8563 80.1767 82.6134 57.648ZM43.1255 111.334C42.4633 110.596 41.7186 109.946 40.9085 109.398C30.6879 102.389 12.2122 121.817 9.86678 137.166L21.4741 145.127C24.6318 141.494 28.8596 138.101 34.2899 136.617C43.2641 128.577 49.0358 117.981 43.1291 111.326L43.1255 111.334ZM18.1953 149.837L6.3837 141.728C-11.7429 160.039 14.4448 172.364 18.1942 149.83L18.1953 149.837ZM114.825 92.566C107.937 87.0636 98.5539 94.2288 91.9117 104.48C91.0829 110.33 88.3243 115.123 85.232 118.815L93.9541 130.174C108.176 126.105 124.561 104.691 116.884 94.7006C116.283 93.908 115.593 93.1945 114.829 92.5766L114.825 92.566ZM81.1378 122.749C60.2924 129.044 74.6487 155.237 90.0127 134.291L81.1378 122.749ZM171.97 -3.24034C164.046 -6.80862 156.733 2.62325 152.737 14.3459C153.324 20.2719 151.781 25.6721 149.692 30.0751L160.755 38.8684C173.48 31.2106 184.211 6.03578 174.457 -1.70346C173.693 -2.32134 172.861 -2.83872 171.981 -3.24364L171.97 -3.24034ZM146.688 34.989C128.12 46.5676 148.102 68.3846 157.946 43.9382L146.689 34.9946L146.688 34.989Z" fill="#FFBF00" fill-opacity="0.3"/>
</svg>
